<?xml version="1.0" encoding="UTF-8" standalone="no"?>
<!-- Created with Inkscape (http://www.inkscape.org/) -->

<svg
   xmlns:dc="http://purl.org/dc/elements/1.1/"
   xmlns:cc="http://creativecommons.org/ns#"
   xmlns:rdf="http://www.w3.org/1999/02/22-rdf-syntax-ns#"
   xmlns:svg="http://www.w3.org/2000/svg"
   xmlns="http://www.w3.org/2000/svg"
   xmlns:xlink="http://www.w3.org/1999/xlink"
   xmlns:sodipodi="http://sodipodi.sourceforge.net/DTD/sodipodi-0.dtd"
   xmlns:inkscape="http://www.inkscape.org/namespaces/inkscape"
   width="1900"
   height="720"
   id="svg2835"
   version="1.1"
   inkscape:version="0.47 r22583"
   sodipodi:docname="EdgeElement.svg"
   inkscape:export-filename="D:\_DEV\EdgeElement\EdgeElementHome\gfx\Logo\EdgeElement2.png"
   inkscape:export-xdpi="202"
   inkscape:export-ydpi="202">
  <defs
     id="defs3">
    <inkscape:perspective
       sodipodi:type="inkscape:persp3d"
       inkscape:vp_x="0 : 526.18109 : 1"
       inkscape:vp_y="0 : 1000 : 0"
       inkscape:vp_z="744.09448 : 526.18109 : 1"
       inkscape:persp3d-origin="372.04724 : 350.78739 : 1"
       id="perspective2841" />
    <inkscape:perspective
       id="perspective2853"
       inkscape:persp3d-origin="0.5 : 0.33333333 : 1"
       inkscape:vp_z="1 : 0.5 : 1"
       inkscape:vp_y="0 : 1000 : 0"
       inkscape:vp_x="0 : 0.5 : 1"
       sodipodi:type="inkscape:persp3d" />
    <inkscape:perspective
       id="perspective2825"
       inkscape:persp3d-origin="0.5 : 0.33333333 : 1"
       inkscape:vp_z="1 : 0.5 : 1"
       inkscape:vp_y="0 : 1000 : 0"
       inkscape:vp_x="0 : 0.5 : 1"
       sodipodi:type="inkscape:persp3d" />
    <inkscape:perspective
       id="perspective3663"
       inkscape:persp3d-origin="0.5 : 0.33333333 : 1"
       inkscape:vp_z="1 : 0.5 : 1"
       inkscape:vp_y="0 : 1000 : 0"
       inkscape:vp_x="0 : 0.5 : 1"
       sodipodi:type="inkscape:persp3d" />
  </defs>
  <sodipodi:namedview
     inkscape:document-units="mm"
     id="base"
     pagecolor="#ffffff"
     bordercolor="#666666"
     borderopacity="1.0"
     inkscape:pageopacity="0.0"
     inkscape:pageshadow="2"
     inkscape:zoom="0.98994949"
     inkscape:cx="791.64254"
     inkscape:cy="234.10731"
     inkscape:current-layer="layer4"
     showgrid="true"
     inkscape:window-width="2560"
     inkscape:window-height="1361"
     inkscape:window-x="-9"
     inkscape:window-y="-9"
     inkscape:window-maximized="1">
    <inkscape:grid
       type="xygrid"
       id="grid2843"
       empspacing="5"
       visible="true"
       enabled="true"
       snapvisiblegridlinesonly="true"
       dotted="false" />
  </sodipodi:namedview>
  <metadata
     id="metadata4">
    <rdf:RDF>
      <cc:Work
         rdf:about="">
        <dc:format>image/svg+xml</dc:format>
        <dc:type
           rdf:resource="http://purl.org/dc/dcmitype/StillImage" />
        <dc:title></dc:title>
      </cc:Work>
    </rdf:RDF>
  </metadata>
  <g
     inkscape:groupmode="layer"
     id="layer2"
     inkscape:label="bg"
     sodipodi:insensitive="true"
     style="display:none"
     transform="translate(0,-332.36218)">
    <image
       y="152.36218"
       x="20"
       id="image2855"
       height="680"
       width="1860"
       xlink:href="file:///D:/_DEV/EdgeElement/EdgeElementHome/gfx/Logo/EdgeElement%20(1).png" />
  </g>
  <g
     inkscape:label="top"
     inkscape:groupmode="layer"
     id="layer1"
     style="display:inline"
     transform="translate(0,-332.36218)">
    <path
       style="fill:#00b9d8;fill-opacity:1;stroke:none"
       d="m 505,352.36218 50,115 -300,0 45,110 145,0 45,115 -290,0 -135,-340 440,0 z"
       id="path2849"
       sodipodi:nodetypes="ccccccccc" />
    <path
       style="fill:#00a4be;fill-opacity:1;stroke:none"
       d="m 505,577.36218 50,-110 -300,0 45,110 205,0 z"
       id="path2851"
       sodipodi:nodetypes="ccccc" />
    <path
       style="fill:#1eb6ac;fill-opacity:1;stroke:none"
       d="m 810,577.36218 35,-110 -145,0 40,110 70,0 z"
       id="path2855"
       sodipodi:nodetypes="ccccc" />
    <path
       style="fill:#0e2c2c;fill-opacity:1;stroke:none"
       d="m 550,692.36218 90,0 -85,-235 -50,120 45,115 z"
       id="path3633"
       sodipodi:nodetypes="ccccc" />
    <path
       style="fill:#3ad4cd;fill-opacity:1;stroke:none"
       d="m 950,352.36218 -445,0 135,340 150,0 -90,-225 145,0 90,225 145,0 -130,-340 z"
       id="path2853"
       sodipodi:nodetypes="ccccccccc" />
    <path
       style="fill:#00262a;fill-opacity:1;stroke:none"
       d="m 20,467.36218 45,-115 135,340 -90,0 -90,-225 z"
       id="path3629"
       sodipodi:nodetypes="ccccc" />
    <path
       style="fill:#0e3532;fill-opacity:1;stroke:none"
       d="m 800,577.36218 45,-110 90,225 -90,0 -45,-115 z"
       id="path3635"
       sodipodi:nodetypes="ccccc" />
    <path
       style="fill:#d54500;fill-opacity:1;stroke:none"
       d="m 1390,577.36218 -215,0 -35,-110 295,0 -45,110 z"
       id="path3639"
       sodipodi:nodetypes="ccccc" />
    <path
       style="fill:#ff5d00;fill-opacity:1;stroke:none"
       d="m 1230,692.36218 -150,0 -130,-340 440,0 50,115 -300,0 90,225 z"
       id="path3637"
       sodipodi:nodetypes="ccccccc" />
    <path
       style="fill:#575e30;fill-opacity:1;stroke:none"
       d="m 1525,692.36218 -90,0 -45,-115 50,-125 85,240 z"
       id="path3641"
       sodipodi:nodetypes="ccccc" />
    <path
       style="fill:#e6f1af;fill-opacity:1;stroke:none"
       d="m 1830,352.36218 50,115 -295,0 40,110 150,0 45,115 -295,0 -135,-340 440,0 z"
       id="path3643" />
    <path
       style="fill:#aeb972;fill-opacity:1;stroke:none"
       d="m 1835,577.36218 45,-110 -295,0 40,110 210,0 z"
       id="path3645"
       sodipodi:nodetypes="ccccc" />
  </g>
  <g
     inkscape:groupmode="layer"
     id="layer4"
     inkscape:label="bottom"
     transform="translate(0,-332.36218)"
     style="display:inline">
    <path
       style="fill:#00b9d8;fill-opacity:1;stroke:none;display:inline"
       d="m 505,1032.3637 50,-115.00048 -300,0 45,-110.00051 145,0 45,-115.00053 -290,0 -135,340.00152 440,0 z"
       id="path2849-4"
       sodipodi:nodetypes="ccccccccc" />
    <path
       style="fill:#00a4be;fill-opacity:1;stroke:none;display:inline"
       d="m 505,807.36271 50,110.00051 -300,0 45,-110.00051 205,0 z"
       id="path2851-0"
       sodipodi:nodetypes="ccccc" />
    <path
       style="fill:#1eb6ac;fill-opacity:1;stroke:none;display:inline"
       d="m 810,807.36271 35,110.00051 -145,0 40,-110.00051 70,0 z"
       id="path2855-9"
       sodipodi:nodetypes="ccccc" />
    <path
       style="fill:#0e2c2c;fill-opacity:1;stroke:none;display:inline"
       d="m 550,692.36218 90,0 -85,235.00108 -50,-120.00055 45,-115.00053 z"
       id="path3633-4"
       sodipodi:nodetypes="ccccc" />
    <path
       style="fill:#3ad4cd;fill-opacity:1;stroke:none;display:inline"
       d="m 950,1032.3637 -445,0 135,-340.00152 150,0 -90,225.00104 145,0 90,-225.00104 145,0 -130,340.00152 z"
       id="path2853-8"
       sodipodi:nodetypes="ccccccccc" />
    <path
       style="fill:#00262a;fill-opacity:1;stroke:none;display:inline"
       d="m 20,917.36322 45,115.00048 135,-340.00152 -90,0 -90,225.00104 z"
       id="path3629-8"
       sodipodi:nodetypes="ccccc" />
    <path
       style="fill:#0e3532;fill-opacity:1;stroke:none;display:inline"
       d="m 800,807.36271 45,110.00051 90,-225.00104 -90,0 -45,115.00053 z"
       id="path3635-2"
       sodipodi:nodetypes="ccccc" />
    <path
       style="fill:#d54500;fill-opacity:1;stroke:none;display:inline"
       d="m 1390,807.36271 -215,0 -35,110.00051 295,0 -45,-110.00051 z"
       id="path3639-4"
       sodipodi:nodetypes="ccccc" />
    <path
       style="fill:#ff5d00;fill-opacity:1;stroke:none;display:inline"
       d="m 1230,692.36218 -150,0 -130,340.00152 440,0 50,-115.00048 -300,0 90,-225.00104 z"
       id="path3637-5"
       sodipodi:nodetypes="ccccccc" />
    <path
       style="fill:#575e30;fill-opacity:1;stroke:none;display:inline"
       d="m 1525,692.36218 -90,0 -45,115.00053 50,125.00058 85,-240.00111 z"
       id="path3641-5"
       sodipodi:nodetypes="ccccc" />
    <path
       style="fill:#e6f1af;fill-opacity:1;stroke:none;display:inline"
       d="m 1830,1032.3637 50,-115.00048 -295,0 40,-110.00051 150,0 45,-115.00053 -295,0 -135,340.00152 440,0 z"
       id="path3643-1" />
    <path
       style="fill:#aeb972;fill-opacity:1;stroke:none;display:inline"
       d="m 1835,807.36271 45,110.00051 -295,0 40,-110.00051 210,0 z"
       id="path3645-7"
       sodipodi:nodetypes="ccccc" />
  </g>
  <g
     inkscape:groupmode="layer"
     id="layer3"
     inkscape:label="edge"
     style="display:inline"
     transform="translate(0,-332.36218)">
    <path
       style="fill:#ff1700;fill-opacity:1;stroke:none"
       d="m 1290,692.36218 40,115 150,0 -45,-115 -145,0 z"
       id="path3649"
       sodipodi:nodetypes="ccccc" />
    <path
       style="fill:#600d00;fill-opacity:1;stroke:none"
       d="m 1250,807.36218 40,110 40,-110 -40,-115 -40,115 z"
       id="path3651"
       sodipodi:nodetypes="ccccc" />
    <path
       style="fill:#891400;fill-opacity:1;stroke:none"
       d="m 1290,917.36218 145,0 45,-110 -150,0 -40,110 z"
       id="path3653"
       sodipodi:nodetypes="ccccc" />
  </g>
</svg>
